<?xml version="1.0" encoding="utf-8"?>
<!-- Generator: Adobe Illustrator 24.3.0, SVG Export Plug-In . SVG Version: 6.00 Build 0)  -->
<svg version="1.1" id="Layer_1" xmlns="http://www.w3.org/2000/svg" xmlns:xlink="http://www.w3.org/1999/xlink" x="0px" y="0px"
	 viewBox="0 0 800 800" enable-background="new 0 0 800 800" xml:space="preserve">
<g>
	<path fill="#BFC6E4" d="M679.135,448.664l-0.168,0.82c-4.162,25.992-6.279,26.263-15.099,26.962l-421.189,23.59
		c-4.65-0.073-9.455-2.399-11.304-6.043c-0.275-1.349-0.551-2.697-0.826-4.046v-0.088L181.807,251.13
		c-0.114-3.802-0.815-7.654-1.493-11.39c-0.305-1.682-0.701-3.863-0.934-5.68h541.208c5.505,0,10.044,4.223,10.541,9.6
		L679.135,448.664z"/>
	<g>
		<path fill="#1D1751" d="M720.588,215.41H175.815c-0.479,0-0.845,0.114-1.293,0.146c-2.212-10.834-4.423-21.667-6.636-32.5
			c-1.15-5.632-1.283-14.532-4.025-19.711c-6.324-11.946-29.871-16.682-41.439-21.677c-19.315-8.341-38.63-16.681-57.946-25.022
			c-10.904-4.709-20.413,11.354-9.413,16.104c15.15,6.542,30.298,13.083,45.448,19.625c14.461,6.244,30.679,16.268,46.222,20.477
			c-0.09,3.718,1.833,8.619,2.553,12.15c3.019,14.783,6.037,29.565,9.055,44.348c1.609,7.882,3.219,15.765,4.829,23.647v0.092
			l48.752,238.761c0.115,2.787,0.688,5.471,1.652,7.993c0.417,2.042,0.833,4.083,1.25,6.125c5.106,25.01,10.214,50.019,15.32,75.029
			c0.811,3.971,5.101,6.846,8.992,6.846c127.502,0,255.005,0,382.507,0c18.008,0,36.016,0,54.024,0c12,0,12.021-18.65,0-18.65
			c-127.502,0-255.005,0-382.507,0c-15.477,0-30.953,0-46.429,0c-3.483-17.055-6.965-34.109-10.447-51.164
			c2.137,0.421,4.348,0.66,6.624,0.66h0.26l421.849-23.627l0.21-0.016c23.012-1.819,27.693-14.894,32.091-42.199l52.508-207.036
			v-1.163C749.825,228.526,736.711,215.41,720.588,215.41z M146.704,172.353c-0.001,0.01,0.002,0.022,0.002,0.031
			C143.336,169.911,147.16,166.312,146.704,172.353z M679.135,448.664l-0.168,0.82c-4.162,25.992-6.279,26.263-15.099,26.962
			l-421.189,23.59c-4.65-0.073-9.455-2.399-11.304-6.043c-0.275-1.349-0.551-2.697-0.826-4.046v-0.088L181.807,251.13
			c-0.114-3.802-0.815-7.654-1.493-11.39c-0.305-1.682-0.701-3.863-0.934-5.68h541.208c5.505,0,10.044,4.223,10.541,9.6
			L679.135,448.664z"/>
	</g>
	<path fill="#1D1751" d="M512.079,351.038c-15.853,0-31.708,0-47.561,0c0-15.854,0-31.708,0-47.562c0-12.001-18.65-12.02-18.65,0
		c0,15.854,0,31.708,0,47.562c-15.854,0-31.708,0-47.562,0c-12,0-12.02,18.65,0,18.65c15.854,0,31.708,0,47.562,0
		c0,15.854,0,31.708,0,47.561c0,12,18.65,12.02,18.65,0c0-15.854,0-31.708,0-47.561c15.853,0,31.708,0,47.561,0
		C524.08,369.688,524.1,351.038,512.079,351.038z"/>
	<g>
		<path fill="#1D1751" d="M399.734,688.82c0-31.06-25.27-56.328-56.328-56.328s-56.328,25.268-56.328,56.328
			s25.271,56.328,56.328,56.328S399.734,719.88,399.734,688.82z M305.728,688.82c0-20.776,16.902-37.678,37.678-37.678
			c20.776,0,37.678,16.902,37.678,37.678s-16.902,37.678-37.678,37.678C322.63,726.498,305.728,709.597,305.728,688.82z"/>
	</g>
	<g>
		<path fill="#1D1751" d="M616.109,688.82c0-31.06-25.271-56.328-56.328-56.328c-31.058,0-56.328,25.268-56.328,56.328
			s25.27,56.328,56.328,56.328C590.839,745.148,616.109,719.88,616.109,688.82z M522.103,688.82
			c0-20.776,16.902-37.678,37.678-37.678c20.776,0,37.678,16.902,37.678,37.678s-16.902,37.678-37.678,37.678
			C539.005,726.498,522.103,709.597,522.103,688.82z"/>
	</g>
	<path fill="#1D1751" d="M445.736,175.951c0.106,11.995,18.756,12.024,18.65,0c-0.225-25.417-0.45-50.835-0.675-76.252
		c-0.106-11.995-18.757-12.024-18.65,0C445.286,125.116,445.51,150.533,445.736,175.951z"/>
	<path fill="#1D1751" d="M454.499,54.852c-12.001,0-12.021,18.65,0,18.65C466.499,73.502,466.519,54.852,454.499,54.852z"/>
	<path fill="#1D1751" d="M522.941,191.813c17.813-18.132,35.627-36.264,53.441-54.395c8.418-8.569-4.759-21.767-13.188-13.188
		c-17.814,18.132-35.627,36.264-53.441,54.395C501.335,187.195,514.512,200.392,522.941,191.813z"/>
	<path fill="#1D1751" d="M594.986,96.46c-12,0-12.021,18.65,0,18.65C606.986,115.11,607.006,96.46,594.986,96.46z"/>
	<path fill="#1D1751" d="M400.69,178.237c-18.132-17.814-36.264-35.627-54.395-53.441c-8.569-8.419-21.767,4.759-13.188,13.188
		c18.132,17.814,36.264,35.627,54.396,53.441C396.071,199.843,409.269,186.666,400.69,178.237z"/>
	<path fill="#1D1751" d="M314.663,96.867c-12,0-12.021,18.65,0,18.65C326.663,115.517,326.683,96.867,314.663,96.867z"/>
	<circle fill="#83C9EF" cx="343.406" cy="688.82" r="37.678"/>
	<circle fill="#83C9EF" cx="559.781" cy="688.82" r="37.678"/>
</g>
</svg>
