<!--?xml version="1.0" standalone="no"?-->
              <svg id="sw-js-blob-svg" viewBox="0 0 100 100" xmlns="http://www.w3.org/2000/svg" version="1.1">
                    <defs> 
                        <linearGradient id="sw-gradient" x1="0" x2="1" y1="1" y2="0">
                            <stop id="stop1" stop-color="rgba(147, 197, 253, 1)" offset="0%"></stop>
                            <stop id="stop2" stop-color="rgba(147, 197, 253, 1)" offset="100%"></stop>
                        </linearGradient>
                    </defs>
                <path fill="url(#sw-gradient)" d="M20.4,-23.8C25.5,-20.1,28,-12.7,31.3,-4C34.7,4.7,39,14.8,36.6,23.2C34.2,31.5,25.2,38,16.4,38.1C7.6,38.3,-0.9,32.1,-9.3,28C-17.7,23.9,-26,21.8,-31.7,16.2C-37.4,10.6,-40.5,1.5,-37.9,-5.5C-35.3,-12.5,-26.9,-17.3,-19.7,-20.7C-12.4,-24,-6.2,-25.8,0.7,-26.7C7.7,-27.6,15.4,-27.5,20.4,-23.8Z" width="100%" height="100%" transform="translate(50 50)" stroke-width="0" style="transition: all 0.3s ease 0s;" stroke="url(#sw-gradient)"></path>
              </svg>